<svg id="Layer_1" data-name="Layer 1" xmlns="http://www.w3.org/2000/svg" xmlns:xlink="http://www.w3.org/1999/xlink" viewBox="0 0 190.67 190.67"><defs><style>.cls-1{fill:#fff;}.cls-2{fill:url(#linear-gradient);}.cls-3{fill:url(#linear-gradient-2);}.cls-4{fill:url(#linear-gradient-3);}</style><linearGradient id="linear-gradient" x1="165.97" y1="138.22" x2="288.96" y2="261.22" gradientTransform="matrix(1, 0, 0, -1, 0, 288)" gradientUnits="userSpaceOnUse"><stop offset="0.01" stop-color="#15baff"/><stop offset="0.46" stop-color="#1579b7"/><stop offset="0.82" stop-color="#154b83"/><stop offset="1" stop-color="#15396f"/></linearGradient><linearGradient id="linear-gradient-2" x1="179.78" y1="137.48" x2="295.84" y2="253.55" xlink:href="#linear-gradient"/><linearGradient id="linear-gradient-3" x1="170.21" y1="133.29" x2="292.98" y2="256.07" xlink:href="#linear-gradient"/></defs><title>logo-icone</title><rect class="cls-1" width="190.67" height="190.67" rx="23.69" ry="23.69"/><path class="cls-2" d="M166,132.1h0a8.69,8.69,0,0,0-3.9,12.9,93.82,93.82,0,0,0,6.1,8,8.64,8.64,0,0,0,11.3,1.6h0a8.77,8.77,0,0,0,1.8-13,60.26,60.26,0,0,1-4.9-6.4A8.53,8.53,0,0,0,166,132.1Z" transform="translate(-139.04)"/><path class="cls-3" d="M239.6,9c-52.9-3.3-96.8,41.8-92.3,94.6a87.71,87.71,0,0,0,2.8,15.6,8.68,8.68,0,0,0,11.1,6h0a8.67,8.67,0,0,0,5.6-10.5A70.81,70.81,0,0,1,164.3,94a69.8,69.8,0,1,1,139.5,5.2c-1.6,37.5-33.1,66.7-70.7,66.7h-1.4a9,9,0,0,0-9,9.1h0a8.52,8.52,0,0,0,8.5,8.3H234A87.24,87.24,0,0,0,239.6,9Z" transform="translate(-139.04)"/><path class="cls-4" d="M271.2,74a37.1,37.1,0,0,0-74.1,2.7,17,17,0,0,0,.1,2.3,8.12,8.12,0,1,0,16.2-.9c0-.5-.1-1-.1-1.4a20.85,20.85,0,0,1,41.7-.4,20.57,20.57,0,0,1-2.9,11,54.82,54.82,0,0,1-15.5,17.6c-10.4,7.5-15.9,19.8-15.9,28.8v15.8a8.81,8.81,0,0,0,8.8,8.8h0a8.81,8.81,0,0,0,8.8-8.8V133.7s-.3-10.5,13.7-20.1a79.11,79.11,0,0,0,14.1-18.1A37.16,37.16,0,0,0,271.2,74Z" transform="translate(-139.04)"/></svg>