<svg id="Layer_1" data-name="Layer 1" xmlns="http://www.w3.org/2000/svg" xmlns:xlink="http://www.w3.org/1999/xlink" viewBox="0 0 384.72 77.98"><defs><style>.cls-1{fill:#159ee0;}.cls-2{fill:url(#linear-gradient);}.cls-3{fill:url(#linear-gradient-2);}.cls-4{fill:url(#linear-gradient-3);}.cls-5{fill:url(#linear-gradient-4);}.cls-6{fill:url(#linear-gradient-5);}.cls-7{fill:url(#linear-gradient-6);}.cls-8{fill:url(#linear-gradient-7);}.cls-9{fill:url(#linear-gradient-8);}</style><linearGradient id="linear-gradient" x1="245.24" y1="55.85" x2="409" y2="55.85" gradientTransform="matrix(1, 0, 0, -1, 0, 288)" gradientUnits="userSpaceOnUse"><stop offset="0.12" stop-color="#159ee0"/><stop offset="0.41" stop-color="#1579b6"/><stop offset="0.81" stop-color="#154b83"/><stop offset="1" stop-color="#15396f"/></linearGradient><linearGradient id="linear-gradient-2" x1="245.69" y1="71.3" x2="408.5" y2="71.3" gradientTransform="matrix(1, 0, 0, -1, 0, 288)" gradientUnits="userSpaceOnUse"><stop offset="0.01" stop-color="#15baff"/><stop offset="0.46" stop-color="#1579b7"/><stop offset="0.82" stop-color="#154b83"/><stop offset="1" stop-color="#15396f"/></linearGradient><linearGradient id="linear-gradient-3" x1="245.61" y1="72.4" x2="408.52" y2="72.4" xlink:href="#linear-gradient-2"/><linearGradient id="linear-gradient-4" x1="244.3" y1="64.7" x2="408.5" y2="64.7" xlink:href="#linear-gradient-2"/><linearGradient id="linear-gradient-5" x1="245.78" y1="64.7" x2="408.64" y2="64.7" xlink:href="#linear-gradient-2"/><linearGradient id="linear-gradient-6" x1="31.77" y1="49.53" x2="80.23" y2="98" xlink:href="#linear-gradient-2"/><linearGradient id="linear-gradient-7" x1="37.21" y1="49.24" x2="82.94" y2="94.98" xlink:href="#linear-gradient-2"/><linearGradient id="linear-gradient-8" x1="33.44" y1="47.59" x2="81.82" y2="95.97" xlink:href="#linear-gradient-2"/></defs><title>mexplica-logo-horizontal</title><path class="cls-1" d="M105.9,194h8.6l17.1,38.1,17-38.1h8.5v48.6h-8V209.3l-14.8,33.3h-5.5l-14.9-33.3v33.3h-8Z" transform="translate(-24.28 -182.92)"/><path class="cls-1" d="M184.2,243.2c-11.1,0-19.2-7.8-19.2-19.9s7.8-19.9,19.2-19.9c11,0,18.7,7.6,18.7,19a25.61,25.61,0,0,1-.3,3.9H173.1c.6,6.4,5.1,10.2,11,10.2,4.9,0,7.6-2.4,9.1-5.4h8.6C199.7,237.8,193.6,243.2,184.2,243.2Zm-10.9-23.3h21.3c-.1-5.9-4.8-9.7-10.8-9.7C178.5,210.1,174.1,213.8,173.3,219.9Z" transform="translate(-24.28 -182.92)"/><path class="cls-1" d="M222.4,229.5l-7.8,13.1h-8.3l12.5-19L206.2,204h9l8.3,13.1,7.8-13.1h8.3l-12.5,19,12.5,19.5h-9Z" transform="translate(-24.28 -182.92)"/><path class="cls-2" d="M267.1,203.4c10.1,0,18.1,7.8,18.1,19.7s-8,20.1-18.1,20.1a17.28,17.28,0,0,1-13.4-6.2v23.9h-8V204h8v5.7A16.72,16.72,0,0,1,267.1,203.4Zm-1.7,6.9c-5.9,0-11.7,4.7-11.7,12.9s5.7,13,11.7,13,11.8-4.8,11.8-13.2S271.4,210.3,265.4,210.3Z" transform="translate(-24.28 -182.92)"/><path class="cls-3" d="M293.1,190.8h8v51.8h-8Z" transform="translate(-24.28 -182.92)"/><path class="cls-4" d="M310.6,193.8a5.05,5.05,0,1,1,5.1,5.1A5,5,0,0,1,310.6,193.8Zm1,10.2h8v38.5h-8Z" transform="translate(-24.28 -182.92)"/><path class="cls-5" d="M346.3,203.4c9.4,0,15.6,4.7,17.8,12.8h-8.6c-1.3-3.7-4.4-6.1-9.2-6.1-6.4,0-10.7,4.8-10.7,13.2s4.3,13.2,10.7,13.2c4.8,0,7.7-2.1,9.2-6.1h8.6c-2.2,7.6-8.3,12.8-17.8,12.8-11.1,0-18.9-7.8-18.9-19.9S335.3,203.4,346.3,203.4Z" transform="translate(-24.28 -182.92)"/><path class="cls-6" d="M387.6,203.4a16.66,16.66,0,0,1,13.4,6.2V204h8v38.5h-8v-5.7a16.55,16.55,0,0,1-13.5,6.4c-10,0-18.1-8.2-18.1-20.1S377.4,203.4,387.6,203.4Zm1.7,6.9c-5.9,0-11.7,4.5-11.7,12.8s5.7,13.2,11.7,13.2,11.7-4.7,11.7-13S395.3,210.3,389.3,210.3Z" transform="translate(-24.28 -182.92)"/><path class="cls-7" d="M31.78,231.5h0a3.42,3.42,0,0,0-1.54,5.08,38.62,38.62,0,0,0,2.4,3.16,3.42,3.42,0,0,0,4.46.63h0a3.47,3.47,0,0,0,.71-5.13,23.76,23.76,0,0,1-1.94-2.52A3.35,3.35,0,0,0,31.78,231.5Z" transform="translate(-24.28 -182.92)"/><path class="cls-8" d="M60.78,183a34.51,34.51,0,0,0-36.37,37.28,34.08,34.08,0,0,0,1.1,6.15,3.42,3.42,0,0,0,4.37,2.36h0a3.41,3.41,0,0,0,2.21-4.14,27.51,27.51,0,0,1,26.09-34.83,27.51,27.51,0,1,1,0,55h-.55a3.57,3.57,0,0,0-3.55,3.59h0a3.36,3.36,0,0,0,3.35,3.27h1.1A34.38,34.38,0,0,0,60.78,183Z" transform="translate(-24.28 -182.92)"/><path class="cls-9" d="M73.23,208.6A14.62,14.62,0,0,0,44,209.67a6.7,6.7,0,0,0,0,.91,3.2,3.2,0,1,0,6.39-.36c0-.2,0-.39,0-.55a8.22,8.22,0,0,1,16.43-.16,8.12,8.12,0,0,1-1.14,4.34,21.55,21.55,0,0,1-6.11,6.93c-4.1,3-6.27,7.8-6.27,11.35v6.23a3.48,3.48,0,0,0,3.47,3.47h0a3.48,3.48,0,0,0,3.47-3.47v-6.23s-.12-4.14,5.4-7.92a31.24,31.24,0,0,0,5.55-7.13A14.63,14.63,0,0,0,73.23,208.6Z" transform="translate(-24.28 -182.92)"/></svg>