<svg id="Layer_1" data-name="Layer 1" xmlns="http://www.w3.org/2000/svg" xmlns:xlink="http://www.w3.org/1999/xlink" viewBox="0 0 303.1 252.07"><defs><style>.cls-1{fill:url(#linear-gradient);}.cls-2{fill:url(#linear-gradient-2);}.cls-3{fill:url(#linear-gradient-3);}.cls-4{fill:#159ee0;}.cls-5{fill:url(#linear-gradient-4);}.cls-6{fill:url(#linear-gradient-5);}.cls-7{fill:url(#linear-gradient-6);}.cls-8{fill:url(#linear-gradient-7);}.cls-9{fill:url(#linear-gradient-8);}</style><linearGradient id="linear-gradient" x1="190.97" y1="138.22" x2="313.96" y2="261.22" gradientTransform="matrix(1, 0, 0, -1, 0, 288)" gradientUnits="userSpaceOnUse"><stop offset="0.01" stop-color="#15baff"/><stop offset="0.46" stop-color="#1579b7"/><stop offset="0.82" stop-color="#154b83"/><stop offset="1" stop-color="#15396f"/></linearGradient><linearGradient id="linear-gradient-2" x1="204.78" y1="137.48" x2="320.84" y2="253.55" xlink:href="#linear-gradient"/><linearGradient id="linear-gradient-3" x1="195.21" y1="133.29" x2="317.98" y2="256.07" xlink:href="#linear-gradient"/><linearGradient id="linear-gradient-4" x1="245.24" y1="55.85" x2="409" y2="55.85" gradientTransform="matrix(1, 0, 0, -1, 0, 288)" gradientUnits="userSpaceOnUse"><stop offset="0.12" stop-color="#159ee0"/><stop offset="0.41" stop-color="#1579b6"/><stop offset="0.81" stop-color="#154b83"/><stop offset="1" stop-color="#15396f"/></linearGradient><linearGradient id="linear-gradient-5" x1="245.69" y1="71.3" x2="408.5" y2="71.3" xlink:href="#linear-gradient"/><linearGradient id="linear-gradient-6" x1="245.61" y1="72.4" x2="408.52" y2="72.4" xlink:href="#linear-gradient"/><linearGradient id="linear-gradient-7" x1="244.3" y1="64.7" x2="408.5" y2="64.7" xlink:href="#linear-gradient"/><linearGradient id="linear-gradient-8" x1="245.78" y1="64.7" x2="408.64" y2="64.7" xlink:href="#linear-gradient"/></defs><title>Mexplica-logo</title><g id="Layer_2" data-name="Layer 2"><path class="cls-1" d="M191,132.1h0a8.69,8.69,0,0,0-3.9,12.9,93.82,93.82,0,0,0,6.1,8,8.64,8.64,0,0,0,11.3,1.6h0a8.77,8.77,0,0,0,1.8-13,60.26,60.26,0,0,1-4.9-6.4A8.53,8.53,0,0,0,191,132.1Z" transform="translate(-105.9 -8.83)"/><path class="cls-2" d="M264.6,9c-52.9-3.3-96.8,41.8-92.3,94.6a87.71,87.71,0,0,0,2.8,15.6,8.68,8.68,0,0,0,11.1,6h0a8.67,8.67,0,0,0,5.6-10.5A70.81,70.81,0,0,1,189.3,94a69.8,69.8,0,1,1,139.5,5.2c-1.6,37.5-33.1,66.7-70.7,66.7h-1.4a9,9,0,0,0-9,9.1h0a8.52,8.52,0,0,0,8.5,8.3H259A87.24,87.24,0,0,0,264.6,9Z" transform="translate(-105.9 -8.83)"/><path class="cls-3" d="M296.2,74a37.1,37.1,0,0,0-74.1,2.7,17,17,0,0,0,.1,2.3,8.12,8.12,0,1,0,16.2-.9c0-.5-.1-1-.1-1.4a20.85,20.85,0,0,1,41.7-.4,20.57,20.57,0,0,1-2.9,11,54.82,54.82,0,0,1-15.5,17.6c-10.4,7.5-15.9,19.8-15.9,28.8v15.8a8.81,8.81,0,0,0,8.8,8.8h0a8.81,8.81,0,0,0,8.8-8.8V133.7s-.3-10.5,13.7-20.1a79.11,79.11,0,0,0,14.1-18.1A37.16,37.16,0,0,0,296.2,74Z" transform="translate(-105.9 -8.83)"/><path class="cls-4" d="M105.9,194h8.6l17.1,38.1,17-38.1h8.5v48.6h-8V209.3l-14.8,33.3h-5.5l-14.9-33.3v33.3h-8Z" transform="translate(-105.9 -8.83)"/><path class="cls-4" d="M184.2,243.2c-11.1,0-19.2-7.8-19.2-19.9s7.8-19.9,19.2-19.9c11,0,18.7,7.6,18.7,19a25.61,25.61,0,0,1-.3,3.9H173.1c.6,6.4,5.1,10.2,11,10.2,4.9,0,7.6-2.4,9.1-5.4h8.6C199.7,237.8,193.6,243.2,184.2,243.2Zm-10.9-23.3h21.3c-.1-5.9-4.8-9.7-10.8-9.7C178.5,210.1,174.1,213.8,173.3,219.9Z" transform="translate(-105.9 -8.83)"/><path class="cls-4" d="M222.4,229.5l-7.8,13.1h-8.3l12.5-19L206.2,204h9l8.3,13.1,7.8-13.1h8.3l-12.5,19,12.5,19.5h-9Z" transform="translate(-105.9 -8.83)"/><path class="cls-5" d="M267.1,203.4c10.1,0,18.1,7.8,18.1,19.7s-8,20.1-18.1,20.1a17.28,17.28,0,0,1-13.4-6.2v23.9h-8V204h8v5.7A16.72,16.72,0,0,1,267.1,203.4Zm-1.7,6.9c-5.9,0-11.7,4.7-11.7,12.9s5.7,13,11.7,13,11.8-4.8,11.8-13.2S271.4,210.3,265.4,210.3Z" transform="translate(-105.9 -8.83)"/><path class="cls-6" d="M293.1,190.8h8v51.8h-8Z" transform="translate(-105.9 -8.83)"/><path class="cls-7" d="M310.6,193.8a5.05,5.05,0,1,1,5.1,5.1A5,5,0,0,1,310.6,193.8Zm1,10.2h8v38.5h-8Z" transform="translate(-105.9 -8.83)"/><path class="cls-8" d="M346.3,203.4c9.4,0,15.6,4.7,17.8,12.8h-8.6c-1.3-3.7-4.4-6.1-9.2-6.1-6.4,0-10.7,4.8-10.7,13.2s4.3,13.2,10.7,13.2c4.8,0,7.7-2.1,9.2-6.1h8.6c-2.2,7.6-8.3,12.8-17.8,12.8-11.1,0-18.9-7.8-18.9-19.9S335.3,203.4,346.3,203.4Z" transform="translate(-105.9 -8.83)"/><path class="cls-9" d="M387.6,203.4a16.66,16.66,0,0,1,13.4,6.2V204h8v38.5h-8v-5.7a16.55,16.55,0,0,1-13.5,6.4c-10,0-18.1-8.2-18.1-20.1S377.4,203.4,387.6,203.4Zm1.7,6.9c-5.9,0-11.7,4.5-11.7,12.8s5.7,13.2,11.7,13.2,11.7-4.7,11.7-13S395.3,210.3,389.3,210.3Z" transform="translate(-105.9 -8.83)"/></g></svg>