<svg id="Layer_1" data-name="Layer 1" xmlns="http://www.w3.org/2000/svg" viewBox="0 0 488 496"><defs><style>.cls-1{fill:#eb4335;}.cls-2{fill:#4285f4;}.cls-3{fill:#34a853;}.cls-4{fill:#fbbc05;}</style></defs><title>google-brands</title><path class="cls-1" d="M346.8,137.8l67.5-64.9C371,32.5,314.8,8,248,8A247.68,247.68,0,0,0,26.27,144.65l76.21,59.81C136.72,102.19,270.27,64,346.8,137.8Z" transform="translate(0 -8)"/><path class="cls-2" d="M488,261.8a217.41,217.41,0,0,0-3.9-41.4H248v85.3H388.8c-3.58,22.5-18.94,57.88-53.21,81.72l75.1,58.93C459.53,403.17,488,338.48,488,261.8Z" transform="translate(0 -8)"/><path class="cls-3" d="M335.59,387.42C314.28,402.24,285.66,412.6,248,412.6c-66.5,0-123.41-43.31-144.72-103.86L26.77,368.37A247.69,247.69,0,0,0,248,504c65.55,0,121.4-21.14,162.69-57.65Z" transform="translate(0 -8)"/><path class="cls-4" d="M94.3,256a161.83,161.83,0,0,1,8.18-51.54L26.27,144.65a249.18,249.18,0,0,0,.5,223.72l76.51-59.63A158.32,158.32,0,0,1,94.3,256Z" transform="translate(0 -8)"/></svg>